<svg width="33" height="24" viewBox="0 0 33 24" fill="none" xmlns="http://www.w3.org/2000/svg">
<path d="M12 13C12.5523 13 13 12.5523 13 12C13 11.4477 12.5523 11 12 11C11.4477 11 11 11.4477 11 12C11 12.5523 11.4477 13 12 13Z" stroke="black" stroke-opacity="0.15" stroke-width="2" stroke-linecap="round" stroke-linejoin="round"/>
<path d="M12 6C12.5523 6 13 5.55228 13 5C13 4.44772 12.5523 4 12 4C11.4477 4 11 4.44772 11 5C11 5.55228 11.4477 6 12 6Z" stroke="black" stroke-opacity="0.15" stroke-width="2" stroke-linecap="round" stroke-linejoin="round"/>
<path d="M12 20C12.5523 20 13 19.5523 13 19C13 18.4477 12.5523 18 12 18C11.4477 18 11 18.4477 11 19C11 19.5523 11.4477 20 12 20Z" stroke="black" stroke-opacity="0.15" stroke-width="2" stroke-linecap="round" stroke-linejoin="round"/>
<path d="M21 13C21.5523 13 22 12.5523 22 12C22 11.4477 21.5523 11 21 11C20.4477 11 20 11.4477 20 12C20 12.5523 20.4477 13 21 13Z" stroke="black" stroke-opacity="0.15" stroke-width="2" stroke-linecap="round" stroke-linejoin="round"/>
<path d="M21 6C21.5523 6 22 5.55228 22 5C22 4.44772 21.5523 4 21 4C20.4477 4 20 4.44772 20 5C20 5.55228 20.4477 6 21 6Z" stroke="black" stroke-opacity="0.15" stroke-width="2" stroke-linecap="round" stroke-linejoin="round"/>
<path d="M21 20C21.5523 20 22 19.5523 22 19C22 18.4477 21.5523 18 21 18C20.4477 18 20 18.4477 20 19C20 19.5523 20.4477 20 21 20Z" stroke="black" stroke-opacity="0.15" stroke-width="2" stroke-linecap="round" stroke-linejoin="round"/>
</svg>
