<svg width="19" height="19" viewBox="0 0 19 19" fill="none" xmlns="http://www.w3.org/2000/svg">
<path d="M1.5835 3.64167C1.5835 3.19829 1.5835 2.9766 1.66978 2.80726C1.74568 2.6583 1.86679 2.53719 2.01575 2.46129C2.1851 2.375 2.40679 2.375 2.85016 2.375H16.1502C16.5935 2.375 16.8152 2.375 16.9846 2.46129C17.1335 2.53719 17.2546 2.6583 17.3305 2.80726C17.4168 2.9766 17.4168 3.19829 17.4168 3.64167V4.1716C17.4168 4.3844 17.4168 4.4908 17.3908 4.58974C17.3678 4.67741 17.3299 4.76048 17.2787 4.83531C17.221 4.91976 17.1405 4.98944 16.9797 5.12881L11.9164 9.51702C11.7556 9.65639 11.6752 9.72607 11.6175 9.81052C11.5663 9.88536 11.5284 9.96842 11.5053 10.0561C11.4793 10.155 11.4793 10.2614 11.4793 10.4742V14.6129C11.4793 14.7677 11.4793 14.8451 11.4544 14.912C11.4323 14.9712 11.3964 15.0242 11.3497 15.0666C11.2968 15.1147 11.225 15.1434 11.0812 15.2009L8.38954 16.2776C8.09857 16.394 7.95308 16.4522 7.8363 16.4279C7.73416 16.4067 7.64454 16.346 7.5869 16.259C7.521 16.1596 7.521 16.0029 7.521 15.6895V10.4742C7.521 10.2614 7.521 10.155 7.49499 10.0561C7.47195 9.96842 7.43402 9.88536 7.38286 9.81052C7.32512 9.72607 7.24472 9.65639 7.08391 9.51702L2.02058 5.12881C1.85978 4.98944 1.77937 4.91976 1.72164 4.83531C1.67047 4.76048 1.63254 4.67741 1.6095 4.58974C1.5835 4.4908 1.5835 4.3844 1.5835 4.1716V3.64167Z" stroke="black" stroke-width="2" stroke-linecap="round" stroke-linejoin="round"/>
</svg>
