<svg width="220" height="20" viewBox="0 0 220 20" fill="none" xmlns="http://www.w3.org/2000/svg">
<path d="M22.6666 2V7.66666H11.3333L14.4121 2H22.6666Z" fill="black"/>
<path d="M11.3333 7.66663L5.66666 18.9999H0L4.63721 9.72551L11.3333 7.66663Z" fill="black"/>
<path d="M22.6666 18.9999H16.9999L11.3333 7.66663L18.0294 9.72551L22.6666 18.9999Z" fill="black"/>
<path d="M11.3338 7.66666H0.000488281V2H8.25492L11.3338 7.66666Z" fill="black"/>
<path d="M35.625 5.30966V2.45455H47.919V5.30966H43.5085V17H40.0426V5.30966H35.625ZM48.836 17V2.45455H58.9781V5.30966H52.3516V8.29261H58.4596V11.1548H52.3516V14.1449H58.9781V17H48.836ZM72.759 2.45455V17H69.7761L63.9877 8.60511H63.8954V17H60.3798V2.45455H63.4053L69.1298 10.8352H69.2505V2.45455H72.759ZM82.0318 6.81534C81.9845 6.29451 81.7738 5.88968 81.3997 5.60085C81.0304 5.30729 80.5025 5.16051 79.8159 5.16051C79.3614 5.16051 78.9826 5.2197 78.6795 5.33807C78.3765 5.45644 78.1492 5.61979 77.9977 5.82812C77.8462 6.03172 77.7681 6.2661 77.7634 6.53125C77.7539 6.74905 77.7965 6.94081 77.8912 7.10653C77.9906 7.27225 78.1327 7.41903 78.3173 7.54688C78.5067 7.66998 78.734 7.77888 78.9991 7.87358C79.2643 7.96828 79.5626 8.05114 79.894 8.12216L81.144 8.40625C81.8637 8.5625 82.4982 8.77083 83.0474 9.03125C83.6014 9.29167 84.0654 9.6018 84.4395 9.96165C84.8183 10.3215 85.1047 10.7358 85.2989 11.2045C85.493 11.6733 85.5924 12.1989 85.5972 12.7812C85.5924 13.6998 85.3604 14.4882 84.9011 15.1463C84.4419 15.8045 83.7813 16.3087 82.9196 16.6591C82.0626 17.0095 81.028 17.1847 79.8159 17.1847C78.5991 17.1847 77.5384 17.0024 76.6341 16.6378C75.7297 16.2732 75.0266 15.7192 74.5247 14.9759C74.0228 14.2325 73.7648 13.2926 73.7506 12.1562H77.117C77.1455 12.625 77.2709 13.0156 77.4935 13.3281C77.716 13.6406 78.0214 13.8774 78.4097 14.0384C78.8027 14.1993 79.2572 14.2798 79.7733 14.2798C80.2468 14.2798 80.6492 14.2159 80.9807 14.0881C81.3169 13.9602 81.5749 13.7827 81.7548 13.5554C81.9348 13.3281 82.0271 13.0677 82.0318 12.7741C82.0271 12.4995 81.9419 12.2652 81.7761 12.071C81.6104 11.8722 81.3547 11.7017 81.0091 11.5597C80.6682 11.4129 80.2326 11.2779 79.7023 11.1548L78.1824 10.7997C76.9229 10.5109 75.931 10.0445 75.2065 9.40057C74.4821 8.75189 74.1223 7.87595 74.127 6.77273C74.1223 5.87311 74.3637 5.08475 74.8514 4.40767C75.3391 3.73059 76.0138 3.20265 76.8756 2.82386C77.7373 2.44508 78.7198 2.25568 79.823 2.25568C80.9499 2.25568 81.9277 2.44744 82.7562 2.83097C83.5896 3.20975 84.2359 3.74242 84.6952 4.42898C85.1544 5.11553 85.3888 5.91098 85.3983 6.81534H82.0318ZM100.301 9.72727C100.301 11.3277 99.9937 12.6842 99.3781 13.7969C98.7626 14.9096 97.9293 15.7547 96.8781 16.3324C95.8317 16.91 94.6575 17.1989 93.3554 17.1989C92.0486 17.1989 90.872 16.9077 89.8256 16.3253C88.7792 15.7429 87.9482 14.8977 87.3327 13.7898C86.7219 12.6771 86.4165 11.3229 86.4165 9.72727C86.4165 8.12689 86.7219 6.77036 87.3327 5.65767C87.9482 4.54498 88.7792 3.69981 89.8256 3.12216C90.872 2.54451 92.0486 2.25568 93.3554 2.25568C94.6575 2.25568 95.8317 2.54451 96.8781 3.12216C97.9293 3.69981 98.7626 4.54498 99.3781 5.65767C99.9937 6.77036 100.301 8.12689 100.301 9.72727ZM96.7077 9.72727C96.7077 8.7803 96.5727 7.98011 96.3028 7.3267C96.0377 6.67329 95.6542 6.1785 95.1523 5.84233C94.6551 5.50615 94.0562 5.33807 93.3554 5.33807C92.6594 5.33807 92.0604 5.50615 91.5585 5.84233C91.0566 6.1785 90.6707 6.67329 90.4009 7.3267C90.1357 7.98011 90.0031 8.7803 90.0031 9.72727C90.0031 10.6742 90.1357 11.4744 90.4009 12.1278C90.6707 12.7812 91.0566 13.276 91.5585 13.6122C92.0604 13.9484 92.6594 14.1165 93.3554 14.1165C94.0562 14.1165 94.6551 13.9484 95.1523 13.6122C95.6542 13.276 96.0377 12.7812 96.3028 12.1278C96.5727 11.4744 96.7077 10.6742 96.7077 9.72727ZM101.554 17V2.45455H107.562C108.652 2.45455 109.591 2.65104 110.382 3.04403C111.178 3.43229 111.791 3.991 112.222 4.72017C112.652 5.4446 112.868 6.30398 112.868 7.2983C112.868 8.30682 112.648 9.16383 112.207 9.86932C111.767 10.5701 111.142 11.1051 110.332 11.4744C109.523 11.839 108.564 12.0213 107.456 12.0213H103.656V9.25142H106.803C107.333 9.25142 107.776 9.18276 108.131 9.04545C108.491 8.90341 108.763 8.69034 108.947 8.40625C109.132 8.11742 109.224 7.74811 109.224 7.2983C109.224 6.84848 109.132 6.4768 108.947 6.18324C108.763 5.88494 108.491 5.66241 108.131 5.51562C107.771 5.36411 107.328 5.28835 106.803 5.28835H105.07V17H101.554ZM109.743 10.3523L113.365 17H109.53L105.979 10.3523H109.743ZM113.996 17V2.45455H120.005C121.094 2.45455 122.034 2.66761 122.824 3.09375C123.62 3.51515 124.233 4.10464 124.664 4.86222C125.095 5.61506 125.31 6.491 125.31 7.49006C125.31 8.49384 125.09 9.37216 124.65 10.125C124.214 10.8731 123.591 11.4531 122.782 11.8651C121.972 12.277 121.011 12.483 119.898 12.483H116.191V9.71307H119.245C119.775 9.71307 120.218 9.62074 120.573 9.43608C120.933 9.25142 121.205 8.99337 121.39 8.66193C121.574 8.32576 121.667 7.93513 121.667 7.49006C121.667 7.04025 121.574 6.65199 121.39 6.32528C121.205 5.99384 120.933 5.73816 120.573 5.55824C120.213 5.37831 119.77 5.28835 119.245 5.28835H117.512V17H113.996ZM126.243 17V2.45455H129.759V14.1449H135.81V17H126.243ZM136.83 17V2.45455H146.972V5.30966H140.345V8.29261H146.453V11.1548H140.345V14.1449H146.972V17H136.83ZM151.932 2.45455L154.588 7.04972H154.702L157.386 2.45455H161.321L156.932 9.72727L161.463 17H157.429L154.702 12.3551H154.588L151.861 17H147.855L152.365 9.72727L147.969 2.45455H151.932Z" fill="black"/>
<path d="M171.212 17H165.836V2.45455H171.205C172.687 2.45455 173.963 2.74574 175.033 3.32812C176.108 3.90578 176.937 4.73911 177.519 5.82812C178.102 6.91241 178.393 8.20975 178.393 9.72017C178.393 11.2353 178.102 12.5374 177.519 13.6264C176.942 14.7154 176.115 15.5511 175.041 16.1335C173.966 16.7112 172.69 17 171.212 17ZM169.352 14.0028H171.077C171.892 14.0028 172.581 13.8655 173.144 13.5909C173.712 13.3116 174.141 12.8594 174.43 12.2344C174.723 11.6046 174.87 10.7666 174.87 9.72017C174.87 8.67377 174.723 7.84044 174.43 7.22017C174.136 6.59517 173.703 6.14536 173.13 5.87074C172.562 5.59138 171.861 5.4517 171.028 5.4517H169.352V14.0028ZM193.374 9.72727C193.374 11.3277 193.066 12.6842 192.451 13.7969C191.835 14.9096 191.002 15.7547 189.951 16.3324C188.904 16.91 187.73 17.1989 186.428 17.1989C185.121 17.1989 183.945 16.9077 182.898 16.3253C181.852 15.7429 181.021 14.8977 180.405 13.7898C179.795 12.6771 179.489 11.3229 179.489 9.72727C179.489 8.12689 179.795 6.77036 180.405 5.65767C181.021 4.54498 181.852 3.69981 182.898 3.12216C183.945 2.54451 185.121 2.25568 186.428 2.25568C187.73 2.25568 188.904 2.54451 189.951 3.12216C191.002 3.69981 191.835 4.54498 192.451 5.65767C193.066 6.77036 193.374 8.12689 193.374 9.72727ZM189.78 9.72727C189.78 8.7803 189.645 7.98011 189.375 7.3267C189.11 6.67329 188.727 6.1785 188.225 5.84233C187.728 5.50615 187.129 5.33807 186.428 5.33807C185.732 5.33807 185.133 5.50615 184.631 5.84233C184.129 6.1785 183.743 6.67329 183.474 7.3267C183.208 7.98011 183.076 8.7803 183.076 9.72727C183.076 10.6742 183.208 11.4744 183.474 12.1278C183.743 12.7812 184.129 13.276 184.631 13.6122C185.133 13.9484 185.732 14.1165 186.428 14.1165C187.129 14.1165 187.728 13.9484 188.225 13.6122C188.727 13.276 189.11 12.7812 189.375 12.1278C189.645 11.4744 189.78 10.6742 189.78 9.72727ZM200.536 2.45455H204.002V12.5114C203.997 13.4536 203.772 14.2775 203.327 14.983C202.882 15.6837 202.266 16.2282 201.48 16.6165C200.699 17.0047 199.795 17.1989 198.767 17.1989C197.858 17.1989 197.032 17.0402 196.289 16.723C195.55 16.4058 194.96 15.9134 194.52 15.2457C194.084 14.5781 193.869 13.7235 193.874 12.6818H197.375C197.389 13.0559 197.46 13.3755 197.588 13.6406C197.721 13.901 197.903 14.0975 198.135 14.2301C198.367 14.3627 198.644 14.429 198.966 14.429C199.302 14.429 199.586 14.358 199.818 14.2159C200.05 14.0691 200.226 13.8537 200.344 13.5696C200.467 13.2855 200.531 12.9328 200.536 12.5114V2.45455ZM219.137 9.72727C219.137 11.3277 218.83 12.6842 218.214 13.7969C217.599 14.9096 216.765 15.7547 215.714 16.3324C214.668 16.91 213.493 17.1989 212.191 17.1989C210.885 17.1989 209.708 16.9077 208.662 16.3253C207.615 15.7429 206.784 14.8977 206.169 13.7898C205.558 12.6771 205.252 11.3229 205.252 9.72727C205.252 8.12689 205.558 6.77036 206.169 5.65767C206.784 4.54498 207.615 3.69981 208.662 3.12216C209.708 2.54451 210.885 2.25568 212.191 2.25568C213.493 2.25568 214.668 2.54451 215.714 3.12216C216.765 3.69981 217.599 4.54498 218.214 5.65767C218.83 6.77036 219.137 8.12689 219.137 9.72727ZM215.544 9.72727C215.544 8.7803 215.409 7.98011 215.139 7.3267C214.874 6.67329 214.49 6.1785 213.988 5.84233C213.491 5.50615 212.892 5.33807 212.191 5.33807C211.495 5.33807 210.896 5.50615 210.394 5.84233C209.893 6.1785 209.507 6.67329 209.237 7.3267C208.972 7.98011 208.839 8.7803 208.839 9.72727C208.839 10.6742 208.972 11.4744 209.237 12.1278C209.507 12.7812 209.893 13.276 210.394 13.6122C210.896 13.9484 211.495 14.1165 212.191 14.1165C212.892 14.1165 213.491 13.9484 213.988 13.6122C214.49 13.276 214.874 12.7812 215.139 12.1278C215.409 11.4744 215.544 10.6742 215.544 9.72727Z" fill="#24837B"/>
</svg>
