<svg width="96" height="20" viewBox="0 0 96 20" fill="none" xmlns="http://www.w3.org/2000/svg">
<path d="M22.6673 2V7.66666H11.334L14.4129 2H22.6673Z" fill="black"/>
<path d="M11.3333 7.66699L5.66666 19.0003H0L4.63721 9.72588L11.3333 7.66699Z" fill="black"/>
<path d="M22.6673 19.0003H17.0006L11.334 7.66699L18.0301 9.72588L22.6673 19.0003Z" fill="black"/>
<path d="M11.3333 7.66666H0V2H8.25443L11.3333 7.66666Z" fill="black"/>
<path d="M41.4773 17H36.1009V2.45455H41.4702C42.9522 2.45455 44.2282 2.74574 45.2983 3.32812C46.3731 3.90578 47.2017 4.73911 47.7841 5.82812C48.3665 6.91241 48.6577 8.20975 48.6577 9.72017C48.6577 11.2353 48.3665 12.5374 47.7841 13.6264C47.2064 14.7154 46.3802 15.5511 45.3054 16.1335C44.2306 16.7112 42.9545 17 41.4773 17ZM39.6165 14.0028H41.3423C42.1567 14.0028 42.8456 13.8655 43.4091 13.5909C43.9773 13.3116 44.4058 12.8594 44.6946 12.2344C44.9882 11.6046 45.1349 10.7666 45.1349 9.72017C45.1349 8.67377 44.9882 7.84044 44.6946 7.22017C44.401 6.59517 43.9678 6.14536 43.3949 5.87074C42.8267 5.59138 42.1259 5.4517 41.2926 5.4517H39.6165V14.0028ZM63.6389 9.72727C63.6389 11.3277 63.3312 12.6842 62.7156 13.7969C62.1001 14.9096 61.2668 15.7547 60.2156 16.3324C59.1692 16.91 57.995 17.1989 56.6929 17.1989C55.3861 17.1989 54.2095 16.9077 53.1631 16.3253C52.1167 15.7429 51.2857 14.8977 50.6702 13.7898C50.0594 12.6771 49.754 11.3229 49.754 9.72727C49.754 8.12689 50.0594 6.77036 50.6702 5.65767C51.2857 4.54498 52.1167 3.69981 53.1631 3.12216C54.2095 2.54451 55.3861 2.25568 56.6929 2.25568C57.995 2.25568 59.1692 2.54451 60.2156 3.12216C61.2668 3.69981 62.1001 4.54498 62.7156 5.65767C63.3312 6.77036 63.6389 8.12689 63.6389 9.72727ZM60.0452 9.72727C60.0452 8.7803 59.9102 7.98011 59.6403 7.3267C59.3752 6.67329 58.9917 6.1785 58.4898 5.84233C57.9926 5.50615 57.3937 5.33807 56.6929 5.33807C55.9969 5.33807 55.3979 5.50615 54.896 5.84233C54.3941 6.1785 54.0082 6.67329 53.7384 7.3267C53.4732 7.98011 53.3406 8.7803 53.3406 9.72727C53.3406 10.6742 53.4732 11.4744 53.7384 12.1278C54.0082 12.7812 54.3941 13.276 54.896 13.6122C55.3979 13.9484 55.9969 14.1165 56.6929 14.1165C57.3937 14.1165 57.9926 13.9484 58.4898 13.6122C58.9917 13.276 59.3752 12.7812 59.6403 12.1278C59.9102 11.4744 60.0452 10.6742 60.0452 9.72727ZM70.8006 2.45455H74.2665V12.5114C74.2617 13.4536 74.0368 14.2775 73.5918 14.983C73.1467 15.6837 72.5312 16.2282 71.7452 16.6165C70.9639 17.0047 70.0596 17.1989 69.0321 17.1989C68.123 17.1989 67.2968 17.0402 66.5534 16.723C65.8148 16.4058 65.2253 15.9134 64.7849 15.2457C64.3493 14.5781 64.1339 13.7235 64.1386 12.6818H67.6401C67.6543 13.0559 67.7253 13.3755 67.8531 13.6406C67.9857 13.901 68.168 14.0975 68.4 14.2301C68.632 14.3627 68.909 14.429 69.231 14.429C69.5671 14.429 69.8512 14.358 70.0832 14.2159C70.3152 14.0691 70.4904 13.8537 70.6088 13.5696C70.7319 13.2855 70.7958 12.9328 70.8006 12.5114V2.45455ZM89.4022 9.72727C89.4022 11.3277 89.0944 12.6842 88.4789 13.7969C87.8634 14.9096 87.03 15.7547 85.9789 16.3324C84.9325 16.91 83.7583 17.1989 82.4562 17.1989C81.1494 17.1989 79.9727 16.9077 78.9263 16.3253C77.8799 15.7429 77.049 14.8977 76.4335 13.7898C75.8227 12.6771 75.5173 11.3229 75.5173 9.72727C75.5173 8.12689 75.8227 6.77036 76.4335 5.65767C77.049 4.54498 77.8799 3.69981 78.9263 3.12216C79.9727 2.54451 81.1494 2.25568 82.4562 2.25568C83.7583 2.25568 84.9325 2.54451 85.9789 3.12216C87.03 3.69981 87.8634 4.54498 88.4789 5.65767C89.0944 6.77036 89.4022 8.12689 89.4022 9.72727ZM85.8085 9.72727C85.8085 8.7803 85.6735 7.98011 85.4036 7.3267C85.1385 6.67329 84.7549 6.1785 84.2531 5.84233C83.7559 5.50615 83.1569 5.33807 82.4562 5.33807C81.7602 5.33807 81.1612 5.50615 80.6593 5.84233C80.1574 6.1785 79.7715 6.67329 79.5016 7.3267C79.2365 7.98011 79.1039 8.7803 79.1039 9.72727C79.1039 10.6742 79.2365 11.4744 79.5016 12.1278C79.7715 12.7812 80.1574 13.276 80.6593 13.6122C81.1612 13.9484 81.7602 14.1165 82.4562 14.1165C83.1569 14.1165 83.7559 13.9484 84.2531 13.6122C84.7549 13.276 85.1385 12.7812 85.4036 12.1278C85.6735 11.4744 85.8085 10.6742 85.8085 9.72727Z" fill="#24837B"/>
</svg>
